<?xml version="1.0" encoding="utf-8"?>
<!-- Generator: Adobe Illustrator 24.1.1, SVG Export Plug-In . SVG Version: 6.00 Build 0)  -->
<svg version="1.1" id="Layer_1" xmlns="http://www.w3.org/2000/svg" xmlns:xlink="http://www.w3.org/1999/xlink" x="0px" y="0px"
	 viewBox="0 0 595.28 558.86" style="enable-background:new 0 0 595.28 558.86;" xml:space="preserve">
<style type="text/css">
	.st0{fill:none;}
</style>
<polygon class="st0" points="264.33,176.31 290.3,154.91 311.27,166.98 290.99,151.95 262.8,172.82 262.87,173.23 263.54,176.96 "/>
<path class="st0" d="M299.01,271.16c6.74-21.95,17.66-42.58,32.38-60.71l6.2-3.66l15.26-9l-33.67-24.94
	c-0.9,1.85-1.85,3.67-2.67,5.55C303.41,207.44,297.48,239.29,299.01,271.16z"/>
<path class="st0" d="M229.09,197.78l21.46,12.67c0.16,0.21,0.32,0.37,0.42,0.58c7.52,9.27,13.99,19.18,19.39,29.61
	c5.14,9.78,9.31,20.01,12.57,30.53c1.27-26.34-2.55-52.63-11.35-77.36c-2.1-5.94-4.59-11.75-7.25-17.5l-0.79,0.65l-0.67-3.73
	c-0.06-0.11-0.11-0.23-0.16-0.34L229.09,197.78z"/>
<path class="st0" d="M291.05,329.8l0.02,0c0-0.03,0-0.06,0-0.09L291.05,329.8z"/>
<path d="M227.24,196.69l-33.43-19.73c3.23,2.65,6.46,5.4,9.64,8.32c39.52,35.76,72.84,89.16,78.09,133.61
	c0.45,3.45,0.66,6.8,0.73,10.13l8.78,0.78l0.01-0.08c0,0.03,0,0.06,0,0.09l8.55,0.76c0.07-20.48,6.98-43.57,18.48-66.3
	c11.65-23.2,27.97-46.04,46.46-65.43c7.52-7.95,15.47-15.31,23.57-21.88l-33.44,19.74l-24.55-73.24l65.69-46.78l-80.68,0.74
	L290.99,0.44l-24.21,76.97l-80.69-0.74l65.69,46.78L227.24,196.69z M294.38,271.94c-1.03,0-1.86-7.27-1.86-16.23
	s0.83-16.23,1.86-16.23s1.86,7.27,1.86,16.23S295.41,271.94,294.38,271.94z M294.22,229.67c-0.68-7.78,4.06-22.99,10.31-41.09
	c6.26-18.09,4.57-16.74,5.41-11.33s-7.31,22.5-11.84,44.47C296.92,227.48,294.89,237.45,294.22,229.67z M332.44,110.68
	c8.41-3.6,23.88-16.24,41.6-27.3c17.71-11.05-13.57,18.38-42.82,29.83C331.22,113.21,324.03,114.28,332.44,110.68z M330.91,135.16
	c4.57,12.17,7.34,22.81-5.75,0.51C320.59,127.89,326.34,122.99,330.91,135.16z M316.51,178.39c0.82-1.88,1.77-3.71,2.67-5.55
	l33.67,24.94l-15.26,9l-6.2,3.66c-14.72,18.14-25.64,38.77-32.38,60.71C297.48,239.29,303.41,207.44,316.51,178.39z M287.11,25.43
	c2.87-6.76-4.9,24.35-10.14,38.89C271.73,78.86,279.13,44.23,287.11,25.43z M262.8,172.82l28.2-20.87l20.28,15.02l-20.97-12.06
	l-25.96,21.4c2.66,5.75,5.15,11.55,7.25,17.5c8.79,24.73,12.61,51.02,11.35,77.36c-3.25-10.52-7.42-20.75-12.57-30.53
	c-5.4-10.44-11.87-20.34-19.39-29.61c-0.11-0.21-0.26-0.37-0.42-0.58l-21.46-12.67l33.62-24.89c0.06,0.11,0.11,0.23,0.16,0.34
	L262.8,172.82z"/>
<path d="M395.66,221.67c8.85-5.99,18.54-12.13,29.24-18.33l-49.53,15.95l-10.33,3.34c-31.47,22.99-52.5,51.76-61.45,86.72
	c-1.83,6.85-3.08,13.91-3.93,21.22l3.24,0.29h-45.83v98.38h8.79v6.43l36.36,3.06H248.8l-13.09,21.91l91.93,4.68h21.45l-4.13-6.94
	l-11.76-19.65h-17.11v-9.48h8.79v-98.38h-19.71c1.38-8.69,6.73-31.2,33.59-61.03C351.9,255.26,370.17,238.94,395.66,221.67z
	 M324.65,443.05c4.76,0,8.62,1.48,8.62,3.3c0,1.82-3.86,3.3-8.62,3.3c-4.76,0-8.62-1.48-8.62-3.3
	C316.03,444.52,319.89,443.05,324.65,443.05z M322.34,373.03l-26.32,53.04h-6.49l32.81-66.17V373.03z M310.19,334.02h12.14v7.04
	l-42.18,85.01h-15.61L310.19,334.02z"/>
<path d="M268.35,305.8c4.92,9.97,7.02,17.72,7.99,22.69l5.71,0.51c-3.7-29.66-15.11-55.39-33.68-77.29
	c-8.85-10.54-19.39-20.24-31.47-29.08l-5.24-1.7l-54.62-17.59c7.58,4.4,14.67,8.79,21.35,13.14
	C233.49,252.13,257.65,284.13,268.35,305.8z"/>
<path d="M385.95,468.92c-0.12-2.01-1.79-3.58-3.81-3.58H199.85c-2.02,0-3.69,1.57-3.81,3.58l-4.88,80.62h199.68L385.95,468.92z
	 M351.23,528.28c-0.98,0.17-1.73,0.96-1.73,1.96v4.1c0,1.11-0.9,2.01-2.01,2.01H234.51c-1.11,0-2.01-0.9-2.01-2.01v-4.1
	c0-1-0.75-1.79-1.73-1.96c-8.87-1.55-15.68-9.26-15.68-18.56c0-9.3,6.81-17,15.68-18.56c0.98-0.17,1.73-0.96,1.73-1.96v-4.09
	c0-1.11,0.9-2.01,2.01-2.01h112.97c1.11,0,2.01,0.9,2.01,2.01v4.09c0,1,0.75,1.79,1.73,1.96c8.87,1.55,15.68,9.26,15.68,18.56
	C366.91,519.02,360.1,526.73,351.23,528.28z"/>
<polygon points="390.84,549.54 390.84,549.54 191.16,549.54 191.16,549.54 180.62,549.54 174.68,558.16 407.33,558.16 
	401.38,549.54 "/>
<polygon points="390.84,549.54 390.84,549.54 191.16,549.54 191.16,549.54 "/>
<path d="M239.06,490.9c0.21,0.21,0.53,0.32,0.9,0.32c0.85,0,1.54-0.69,1.54-1.54c0-0.37-0.11-0.69-0.32-0.9L239.06,490.9z"/>
<path d="M239.96,488.09c-0.9,0-1.59,0.69-1.59,1.59c0,0.32,0.11,0.64,0.32,0.9l2.17-2.17C240.59,488.2,240.27,488.09,239.96,488.09z
	"/>
<path d="M342.43,491.22c0.85,0,1.54-0.69,1.54-1.54c0-0.37-0.11-0.69-0.32-0.9l-2.12,2.12
	C341.74,491.11,342.06,491.22,342.43,491.22z"/>
<path d="M343.33,488.41c-0.26-0.21-0.58-0.32-0.9-0.32c-0.9,0-1.59,0.69-1.59,1.59c0,0.32,0.11,0.64,0.32,0.9L343.33,488.41z"/>
<path d="M239.96,529.17c-0.9,0-1.59,0.69-1.59,1.59c0,0.32,0.11,0.64,0.32,0.9l2.17-2.17C240.59,529.28,240.27,529.17,239.96,529.17
	z"/>
<path d="M239.06,531.98c0.21,0.21,0.53,0.32,0.9,0.32c0.85,0,1.54-0.69,1.54-1.54c0-0.37-0.11-0.69-0.32-0.9L239.06,531.98z"/>
<path d="M341.53,531.98c0.21,0.21,0.53,0.32,0.9,0.32c0.85,0,1.54-0.69,1.54-1.54c0-0.37-0.11-0.69-0.32-0.9L341.53,531.98z"/>
<path d="M342.43,529.17c-0.9,0-1.59,0.69-1.59,1.59c0,0.32,0.11,0.64,0.32,0.9l2.17-2.17C343.06,529.28,342.75,529.17,342.43,529.17
	z"/>
<path d="M329.75,534.18h7.1l22.09-37.03c-1.54-1.32-3.34-2.38-5.3-3.13L329.75,534.18z"/>
<polygon points="248.44,534.18 250.45,534.18 279.58,485.23 277.58,485.23 "/>
<polygon points="279.9,534.18 286.95,534.18 316.08,485.23 309.04,485.23 "/>
</svg>
